<svg width="11" height="11" viewBox="0 0 11 11" fill="none" xmlns="http://www.w3.org/2000/svg">
<g clip-path="url(#clip0_0_279)">
<path d="M1.39215 3.84613H9.31389" stroke="#828393" stroke-linecap="round" stroke-linejoin="round"/>
<path d="M7.32526 5.40839H7.32912" stroke="#828393" stroke-linecap="round" stroke-linejoin="round"/>
<path d="M5.35309 5.40839H5.35695" stroke="#828393" stroke-linecap="round" stroke-linejoin="round"/>
<path d="M3.37671 5.40839H3.38057" stroke="#828393" stroke-linecap="round" stroke-linejoin="round"/>
<path d="M7.32526 6.96295H7.32912" stroke="#828393" stroke-linecap="round" stroke-linejoin="round"/>
<path d="M5.35309 6.96295H5.35695" stroke="#828393" stroke-linecap="round" stroke-linejoin="round"/>
<path d="M3.37671 6.96295H3.38057" stroke="#828393" stroke-linecap="round" stroke-linejoin="round"/>
<path d="M7.14819 0.88446V2.20077" stroke="#828393" stroke-linecap="round" stroke-linejoin="round"/>
<path d="M3.55792 0.88446V2.20077" stroke="#828393" stroke-linecap="round" stroke-linejoin="round"/>
<path fill-rule="evenodd" clip-rule="evenodd" d="M7.23468 1.51611H3.47144C2.16624 1.51611 1.35101 2.17049 1.35101 3.37332V6.99318C1.35101 8.21493 2.16624 8.88444 3.47144 8.88444H7.23056C8.53987 8.88444 9.351 8.22628 9.351 7.02344V3.37332C9.3551 2.17049 8.54399 1.51611 7.23468 1.51611Z" stroke="#828393" stroke-linecap="round" stroke-linejoin="round"/>
</g>
<defs>
<clipPath id="clip0_0_279">
<rect width="10" height="10" fill="white" transform="translate(0.101013 0.0511475)"/>
</clipPath>
</defs>
</svg>
