<svg width="16" height="16" viewBox="0 0 16 16" fill="none" xmlns="http://www.w3.org/2000/svg">
<path fill-rule="evenodd" clip-rule="evenodd" d="M7.28357 1.62327C7.54232 1.62327 7.75232 1.83327 7.75232 2.09202C7.75232 2.35077 7.54232 2.56077 7.28357 2.56077H4.9467C3.3317 2.56077 2.28857 3.66702 2.28857 5.3789V10.5751C2.28857 12.287 3.3317 13.3933 4.9467 13.3933H10.4617C12.0767 13.3933 13.1205 12.287 13.1205 10.5751V8.05765C13.1205 7.7989 13.3305 7.5889 13.5892 7.5889C13.8479 7.5889 14.058 7.7989 14.058 8.05765V10.5751C14.058 12.8214 12.6123 14.3308 10.4617 14.3308H4.9467C2.79607 14.3308 1.35107 12.8214 1.35107 10.5751V5.3789C1.35107 3.13265 2.79607 1.62327 4.9467 1.62327H7.28357ZM12.7271 2.1724L13.4877 2.93302C13.8583 3.30302 14.0621 3.7949 14.0615 4.31865C14.0615 4.8424 13.8577 5.33365 13.4877 5.70302L8.79457 10.3961C8.4502 10.7405 7.99145 10.9305 7.50395 10.9305H5.1627C5.03645 10.9305 4.9152 10.8793 4.82707 10.7886C4.73895 10.6986 4.69082 10.5768 4.69395 10.4499L4.7527 8.08802C4.76457 7.61802 4.95395 7.17615 5.28645 6.84302L9.9577 2.1724C10.7214 1.4099 11.9633 1.4099 12.7271 2.1724ZM9.57295 3.8824L5.94957 7.50615C5.7877 7.66802 5.69582 7.88302 5.6902 8.11115L5.64332 9.99302H7.50395C7.74145 9.99302 7.96395 9.90115 8.13207 9.73302L11.7773 6.08677L9.57295 3.8824ZM10.6202 2.83552L10.2354 3.21927L12.4398 5.42427L12.8252 5.0399C13.0177 4.8474 13.124 4.59115 13.124 4.31865C13.124 4.04552 13.0177 3.78865 12.8252 3.59615L12.0646 2.83552C11.6665 2.43865 11.0189 2.43865 10.6202 2.83552Z" fill="black"/>
</svg>
